<svg width="45" height="37" viewBox="0 0 45 37" fill="none" xmlns="http://www.w3.org/2000/svg">
<path d="M10.125 34.25C4.53516 34.25 0 29.7148 0 24.125C0 19.7093 2.82656 15.9547 6.76406 14.5695C6.75703 14.3797 6.75 14.1898 6.75 14C6.75 7.78434 11.7844 2.74997 18 2.74997C22.1695 2.74997 25.8047 5.01403 27.7523 8.38903C28.8211 7.67184 30.1148 7.24997 31.5 7.24997C35.2266 7.24997 38.25 10.2734 38.25 14C38.25 14.8578 38.0883 15.6734 37.8 16.4328C41.9062 17.2625 45 20.8976 45 25.25C45 30.2211 40.9711 34.25 36 34.25H10.125ZM15.6797 18.9922C15.0188 19.6531 15.0188 20.7218 15.6797 21.3757C16.3406 22.0297 17.4094 22.0367 18.0633 21.3757L20.8055 18.6336V28.0625C20.8055 28.9976 21.5578 29.75 22.493 29.75C23.4281 29.75 24.1805 28.9976 24.1805 28.0625V18.6336L26.9227 21.3757C27.5836 22.0367 28.6523 22.0367 29.3062 21.3757C29.9602 20.7148 29.9672 19.6461 29.3062 18.9922L23.6812 13.3672C23.0203 12.7062 21.9516 12.7062 21.2977 13.3672L15.6727 18.9922H15.6797Z" fill="#9CA3AF"/>
</svg>
