<svg width="31" height="33" viewBox="0 0 31 33" fill="none" xmlns="http://www.w3.org/2000/svg">
<path d="M15.5 6.09961C15.1203 6.09961 14.7453 6.16523 14.3891 6.2918L1.24061 11.0402C0.795302 11.2043 0.499989 11.6262 0.499989 12.0996C0.499989 12.573 0.795302 12.9949 1.24061 13.159L3.95468 14.1387C3.18593 15.348 2.74999 16.7777 2.74999 18.2824V19.5996C2.74999 20.9309 2.24374 22.3043 1.70468 23.3871C1.39999 23.9965 1.05311 24.5965 0.649989 25.1496C0.499989 25.3512 0.457802 25.6137 0.542177 25.8527C0.626552 26.0918 0.823427 26.2699 1.06718 26.3309L4.06718 27.0809C4.26405 27.1324 4.47499 27.0949 4.64843 26.9871C4.82186 26.8793 4.94374 26.7012 4.98124 26.4996C5.38436 24.4934 5.1828 22.6934 4.8828 21.4043C4.7328 20.7387 4.53124 20.059 4.24999 19.4355V18.2824C4.24999 16.8668 4.72811 15.5309 5.5578 14.4621C6.16249 13.7355 6.9453 13.1496 7.86405 12.7887L15.2234 9.89648C15.6078 9.74648 16.0437 9.93398 16.1937 10.3184C16.3437 10.7027 16.1562 11.1387 15.7719 11.2887L8.41249 14.1809C7.83124 14.4105 7.3203 14.7621 6.90311 15.1934L14.3844 17.8934C14.7406 18.0199 15.1156 18.0855 15.4953 18.0855C15.875 18.0855 16.25 18.0199 16.6062 17.8934L29.7594 13.159C30.2047 12.9996 30.5 12.573 30.5 12.0996C30.5 11.6262 30.2047 11.2043 29.7594 11.0402L16.6109 6.2918C16.2547 6.16523 15.8797 6.09961 15.5 6.09961ZM6.49999 23.7246C6.49999 25.3793 10.5312 27.0996 15.5 27.0996C20.4687 27.0996 24.5 25.3793 24.5 23.7246L23.7828 16.909L17.1172 19.3184C16.5969 19.5059 16.0484 19.5996 15.5 19.5996C14.9516 19.5996 14.3984 19.5059 13.8828 19.3184L7.21718 16.909L6.49999 23.7246Z" fill="#1F2937"/>
</svg>
