<svg width="15" height="15" viewBox="0 0 15 15" fill="none" xmlns="http://www.w3.org/2000/svg">
<path d="M8.21497 1.27441C8.21497 0.79043 7.82395 0.399414 7.33997 0.399414C6.85598 0.399414 6.46497 0.79043 6.46497 1.27441V7.91074L4.45793 5.90371C4.11614 5.56191 3.56106 5.56191 3.21926 5.90371C2.87747 6.24551 2.87747 6.80059 3.21926 7.14238L6.71926 10.6424C7.06106 10.9842 7.61614 10.9842 7.95793 10.6424L11.4579 7.14238C11.7997 6.80059 11.7997 6.24551 11.4579 5.90371C11.1161 5.56191 10.5611 5.56191 10.2193 5.90371L8.21497 7.91074V1.27441ZM2.08997 10.0244C1.12473 10.0244 0.339966 10.8092 0.339966 11.7744V12.6494C0.339966 13.6146 1.12473 14.3994 2.08997 14.3994H12.59C13.5552 14.3994 14.34 13.6146 14.34 12.6494V11.7744C14.34 10.8092 13.5552 10.0244 12.59 10.0244H9.81458L8.5759 11.2631C7.89231 11.9467 6.78489 11.9467 6.10129 11.2631L4.86536 10.0244H2.08997ZM12.1525 11.5557C12.3265 11.5557 12.4934 11.6248 12.6165 11.7479C12.7396 11.8709 12.8087 12.0379 12.8087 12.2119C12.8087 12.386 12.7396 12.5529 12.6165 12.676C12.4934 12.799 12.3265 12.8682 12.1525 12.8682C11.9784 12.8682 11.8115 12.799 11.6884 12.676C11.5654 12.5529 11.4962 12.386 11.4962 12.2119C11.4962 12.0379 11.5654 11.8709 11.6884 11.7479C11.8115 11.6248 11.9784 11.5557 12.1525 11.5557Z" fill="white"/>
</svg>
