<svg width="17" height="13" viewBox="0 0 17 13" fill="none" xmlns="http://www.w3.org/2000/svg">
<path d="M8.78496 0.274414C6.57559 0.274414 4.80645 1.28066 3.51855 2.47832C2.23887 3.66504 1.38301 5.08691 0.97832 6.06309C0.888086 6.2791 0.888086 6.51973 0.97832 6.73574C1.38301 7.71191 2.23887 9.13379 3.51855 10.3205C4.80645 11.5182 6.57559 12.5244 8.78496 12.5244C10.9943 12.5244 12.7635 11.5182 14.0514 10.3205C15.3311 9.13105 16.1869 7.71191 16.5943 6.73574C16.6846 6.51973 16.6846 6.2791 16.5943 6.06309C16.1869 5.08691 15.3311 3.66504 14.0514 2.47832C12.7635 1.28066 10.9943 0.274414 8.78496 0.274414ZM4.84746 6.39941C4.84746 5.35512 5.2623 4.35361 6.00073 3.61518C6.73915 2.87676 7.74067 2.46191 8.78496 2.46191C9.82925 2.46191 10.8308 2.87676 11.5692 3.61518C12.3076 4.35361 12.7225 5.35512 12.7225 6.39941C12.7225 7.4437 12.3076 8.44522 11.5692 9.18365C10.8308 9.92207 9.82925 10.3369 8.78496 10.3369C7.74067 10.3369 6.73915 9.92207 6.00073 9.18365C5.2623 8.44522 4.84746 7.4437 4.84746 6.39941ZM8.78496 4.64941C8.78496 5.61465 8.0002 6.39941 7.03496 6.39941C6.84082 6.39941 6.65488 6.3666 6.47988 6.30918C6.32949 6.25996 6.15449 6.35293 6.15996 6.51152C6.16816 6.7002 6.19551 6.88887 6.24746 7.07754C6.62207 8.47754 8.06309 9.30879 9.46309 8.93418C10.8631 8.55957 11.6943 7.11855 11.3197 5.71855C11.0162 4.58379 10.0127 3.8209 8.89707 3.77441C8.73848 3.76895 8.64551 3.94121 8.69473 4.09434C8.75215 4.26934 8.78496 4.45527 8.78496 4.64941Z" fill="#374151"/>
</svg>
