<svg width="45" height="61" viewBox="0 0 45 61" fill="none" xmlns="http://www.w3.org/2000/svg">
<path d="M7.5 0.149963C3.36328 0.149963 0 3.51324 0 7.64996V52.65C0 56.7867 3.36328 60.15 7.5 60.15H37.5C41.6367 60.15 45 56.7867 45 52.65V18.9H30C27.9258 18.9 26.25 17.2242 26.25 15.15V0.149963H7.5ZM30 0.149963V15.15H45L30 0.149963ZM13.125 30.15H31.875C32.9062 30.15 33.75 30.9937 33.75 32.025C33.75 33.0562 32.9062 33.9 31.875 33.9H13.125C12.0938 33.9 11.25 33.0562 11.25 32.025C11.25 30.9937 12.0938 30.15 13.125 30.15ZM13.125 37.65H31.875C32.9062 37.65 33.75 38.4937 33.75 39.525C33.75 40.5562 32.9062 41.4 31.875 41.4H13.125C12.0938 41.4 11.25 40.5562 11.25 39.525C11.25 38.4937 12.0938 37.65 13.125 37.65ZM13.125 45.15H31.875C32.9062 45.15 33.75 45.9937 33.75 47.025C33.75 48.0562 32.9062 48.9 31.875 48.9H13.125C12.0938 48.9 11.25 48.0562 11.25 47.025C11.25 45.9937 12.0938 45.15 13.125 45.15Z" fill="#9CA3AF"/>
</svg>
